<mxfile host="app.diagrams.net" modified="2022-07-28T13:29:47.094Z" agent="5.0 (Windows NT 10.0; Win64; x64) AppleWebKit/537.36 (KHTML, like Gecko) Chrome/103.0.0.0 Safari/537.36" etag="rMeOA4M6zJb1pHMXa3fN" version="20.2.2" type="github">
  <diagram id="VAmm2GvDdetD7PKFxNcE" name="Trang-1">
    <mxGraphModel dx="1203" dy="658" grid="1" gridSize="10" guides="1" tooltips="1" connect="1" arrows="1" fold="1" page="1" pageScale="1" pageWidth="850" pageHeight="1100" math="0" shadow="0">
      <root>
        <mxCell id="0" />
        <mxCell id="1" parent="0" />
        <mxCell id="fTM6_jvDv3FBuu0I6BJS-1" value="Shipper" style="rounded=0;whiteSpace=wrap;html=1;" vertex="1" parent="1">
          <mxGeometry x="160" y="270" width="120" height="60" as="geometry" />
        </mxCell>
        <mxCell id="fTM6_jvDv3FBuu0I6BJS-14" style="edgeStyle=orthogonalEdgeStyle;rounded=0;orthogonalLoop=1;jettySize=auto;html=1;entryX=0.333;entryY=0.833;entryDx=0;entryDy=0;entryPerimeter=0;" edge="1" parent="1" source="fTM6_jvDv3FBuu0I6BJS-2" target="fTM6_jvDv3FBuu0I6BJS-9">
          <mxGeometry relative="1" as="geometry" />
        </mxCell>
        <mxCell id="fTM6_jvDv3FBuu0I6BJS-2" value="Staff" style="rounded=0;whiteSpace=wrap;html=1;" vertex="1" parent="1">
          <mxGeometry x="110" y="40" width="120" height="60" as="geometry" />
        </mxCell>
        <mxCell id="fTM6_jvDv3FBuu0I6BJS-3" value="Product" style="rounded=0;whiteSpace=wrap;html=1;" vertex="1" parent="1">
          <mxGeometry x="700" y="270" width="120" height="60" as="geometry" />
        </mxCell>
        <mxCell id="fTM6_jvDv3FBuu0I6BJS-22" style="edgeStyle=orthogonalEdgeStyle;rounded=0;orthogonalLoop=1;jettySize=auto;html=1;" edge="1" parent="1" source="fTM6_jvDv3FBuu0I6BJS-4" target="fTM6_jvDv3FBuu0I6BJS-1">
          <mxGeometry relative="1" as="geometry" />
        </mxCell>
        <mxCell id="fTM6_jvDv3FBuu0I6BJS-24" style="edgeStyle=orthogonalEdgeStyle;rounded=0;orthogonalLoop=1;jettySize=auto;html=1;" edge="1" parent="1" source="fTM6_jvDv3FBuu0I6BJS-4" target="fTM6_jvDv3FBuu0I6BJS-5">
          <mxGeometry relative="1" as="geometry" />
        </mxCell>
        <mxCell id="fTM6_jvDv3FBuu0I6BJS-25" style="edgeStyle=orthogonalEdgeStyle;rounded=0;orthogonalLoop=1;jettySize=auto;html=1;" edge="1" parent="1" source="fTM6_jvDv3FBuu0I6BJS-4" target="fTM6_jvDv3FBuu0I6BJS-3">
          <mxGeometry relative="1" as="geometry" />
        </mxCell>
        <mxCell id="fTM6_jvDv3FBuu0I6BJS-4" value="Order" style="rounded=0;whiteSpace=wrap;html=1;" vertex="1" parent="1">
          <mxGeometry x="360" y="270" width="120" height="60" as="geometry" />
        </mxCell>
        <mxCell id="fTM6_jvDv3FBuu0I6BJS-5" value="Orderdetatail" style="rounded=0;whiteSpace=wrap;html=1;" vertex="1" parent="1">
          <mxGeometry x="360" y="410" width="120" height="60" as="geometry" />
        </mxCell>
        <mxCell id="fTM6_jvDv3FBuu0I6BJS-15" style="edgeStyle=orthogonalEdgeStyle;rounded=0;orthogonalLoop=1;jettySize=auto;html=1;" edge="1" parent="1" source="fTM6_jvDv3FBuu0I6BJS-6" target="fTM6_jvDv3FBuu0I6BJS-8">
          <mxGeometry relative="1" as="geometry" />
        </mxCell>
        <mxCell id="fTM6_jvDv3FBuu0I6BJS-16" style="edgeStyle=orthogonalEdgeStyle;rounded=0;orthogonalLoop=1;jettySize=auto;html=1;" edge="1" parent="1" source="fTM6_jvDv3FBuu0I6BJS-6" target="fTM6_jvDv3FBuu0I6BJS-3">
          <mxGeometry relative="1" as="geometry" />
        </mxCell>
        <mxCell id="fTM6_jvDv3FBuu0I6BJS-6" value="Supplier" style="rounded=0;whiteSpace=wrap;html=1;" vertex="1" parent="1">
          <mxGeometry x="700" y="50" width="120" height="60" as="geometry" />
        </mxCell>
        <mxCell id="fTM6_jvDv3FBuu0I6BJS-23" style="edgeStyle=orthogonalEdgeStyle;rounded=0;orthogonalLoop=1;jettySize=auto;html=1;" edge="1" parent="1" source="fTM6_jvDv3FBuu0I6BJS-8" target="fTM6_jvDv3FBuu0I6BJS-3">
          <mxGeometry relative="1" as="geometry">
            <Array as="points">
              <mxPoint x="760" y="170" />
            </Array>
          </mxGeometry>
        </mxCell>
        <mxCell id="fTM6_jvDv3FBuu0I6BJS-8" value="Categories" style="rounded=0;whiteSpace=wrap;html=1;" vertex="1" parent="1">
          <mxGeometry x="470" y="140" width="120" height="60" as="geometry" />
        </mxCell>
        <mxCell id="fTM6_jvDv3FBuu0I6BJS-11" style="edgeStyle=orthogonalEdgeStyle;rounded=0;orthogonalLoop=1;jettySize=auto;html=1;" edge="1" parent="1" source="fTM6_jvDv3FBuu0I6BJS-9" target="fTM6_jvDv3FBuu0I6BJS-4">
          <mxGeometry relative="1" as="geometry" />
        </mxCell>
        <mxCell id="fTM6_jvDv3FBuu0I6BJS-9" value="Customer" style="rounded=0;whiteSpace=wrap;html=1;" vertex="1" parent="1">
          <mxGeometry x="140" y="160" width="90" height="60" as="geometry" />
        </mxCell>
        <mxCell id="fTM6_jvDv3FBuu0I6BJS-10" style="edgeStyle=orthogonalEdgeStyle;rounded=0;orthogonalLoop=1;jettySize=auto;html=1;exitX=0.5;exitY=1;exitDx=0;exitDy=0;" edge="1" parent="1" source="fTM6_jvDv3FBuu0I6BJS-5" target="fTM6_jvDv3FBuu0I6BJS-5">
          <mxGeometry relative="1" as="geometry" />
        </mxCell>
      </root>
    </mxGraphModel>
  </diagram>
</mxfile>
